<?xml version="1.0" standalone="no"?>
<!DOCTYPE svg PUBLIC "-//W3C//DTD SVG 20010904//EN"
 "http://www.w3.org/TR/2001/REC-SVG-20010904/DTD/svg10.dtd">
<svg version="1.0" xmlns="http://www.w3.org/2000/svg"
 width="784.000000pt" height="784.000000pt" viewBox="0 0 784.000000 784.000000"
 preserveAspectRatio="xMidYMid meet">
<metadata>
Created by potrace 1.14, written by Peter Selinger 2001-2017
</metadata>
<g transform="translate(0.000000,784.000000) scale(0.100000,-0.100000)"
fill="#000000" stroke="none">
<path d="M1935 7543 c-265 -32 -473 -101 -648 -216 -262 -171 -441 -472 -407
-683 15 -88 51 -155 127 -231 188 -189 555 -375 1473 -746 669 -270 1051 -466
1501 -768 521 -351 967 -775 1279 -1217 321 -454 523 -940 602 -1445 19 -120
22 -183 22 -412 1 -234 -2 -289 -22 -413 -13 -79 -26 -150 -29 -157 -3 -8 -1
-15 5 -15 25 0 164 481 201 700 49 286 54 675 12 932 -149 923 -751 1744
-1821 2486 -496 344 -1022 630 -1930 1052 -358 166 -459 219 -517 273 -153
141 -121 269 91 372 334 162 1042 203 1541 89 168 -38 169 -38 162 -27 -8 13
-173 111 -262 156 -264 132 -574 225 -875 262 -103 13 -423 18 -505 8z"/>
<path d="M6165 7364 c-231 -27 -326 -45 -501 -95 -201 -57 -377 -128 -599
-242 -227 -116 -304 -152 -425 -202 -322 -132 -714 -234 -1070 -279 -147 -19
-453 -37 -492 -29 -44 8 -33 -9 36 -60 190 -140 397 -210 656 -223 288 -15
603 45 1187 225 710 219 995 271 1266 230 270 -40 362 -116 440 -365 73 -231
100 -507 101 -1019 0 -479 -25 -915 -89 -1535 -37 -358 -104 -896 -120 -967
-3 -13 -1 -23 3 -23 10 0 84 170 146 338 259 698 470 1619 601 2617 51 389 33
752 -49 993 -112 327 -340 535 -664 607 -135 30 -313 42 -427 29z"/>
<path d="M585 6238 c-89 -222 -62 -433 79 -617 138 -179 416 -359 761 -491
885 -341 1564 -674 2110 -1035 1113 -736 1686 -1588 1820 -2705 26 -210 30
-587 11 -820 -9 -107 -19 -224 -21 -260 l-5 -65 31 90 c16 50 50 167 74 260
197 762 155 1504 -122 2180 -378 920 -1185 1694 -2355 2259 -215 104 -291 136
-758 326 -723 293 -1105 481 -1337 658 -77 58 -253 234 -253 253 0 23 -19 5
-35 -33z"/>
<path d="M1020 4996 c0 -61 22 -332 41 -506 141 -1291 627 -2484 1403 -3439
90 -111 122 -136 191 -152 66 -15 138 1 193 41 42 30 92 117 92 158 0 44 42
226 72 312 74 209 174 371 330 535 253 265 623 468 1031 566 137 33 104 41
-168 41 -281 1 -442 -22 -664 -93 -341 -110 -632 -314 -836 -587 -37 -51 -72
-92 -76 -92 -14 0 -171 174 -239 265 -223 299 -446 728 -737 1419 -81 193
-387 958 -598 1496 -23 59 -35 71 -35 36z"/>
</g>
</svg>
